HIERARCHY
ROOT Hips
{
	OFFSET 0.717293 88.513641 3.606412
	CHANNELS 6 Xposition Yposition Zposition Zrotation Yrotation Xrotation 
	JOINT Spine
	{
		OFFSET -0.000000 8.814246 -2.080107
		CHANNELS 3 Zrotation Yrotation Xrotation
		JOINT Spine1
		{
			OFFSET -0.000000 8.844141 -0.000000
			CHANNELS 3 Zrotation Yrotation Xrotation
			JOINT Spine2
			{
				OFFSET 0.000000 11.682268 0.000000
				CHANNELS 3 Zrotation Yrotation Xrotation
				JOINT Spine3
				{
					OFFSET 0.000000 11.746700 -0.000000
					CHANNELS 3 Zrotation Yrotation Xrotation
					JOINT Neck
					{
						OFFSET 0.000000 17.658264 0.000000
						CHANNELS 3 Zrotation Yrotation Xrotation
						JOINT Neck1
						{
							OFFSET -0.000000 5.101515 -0.000000
							CHANNELS 3 Zrotation Yrotation Xrotation
							JOINT Head
							{
								OFFSET -0.000000 5.101515 -0.000000
								CHANNELS 3 Zrotation Yrotation Xrotation
								JOINT HeadEnd
								{
									OFFSET -0.000000 11.655085 -0.000000
									CHANNELS 3 Zrotation Yrotation Xrotation
									End Site
									{
										OFFSET 0.000000 0.000000 0.000000
									}
								}
							}
						}
					}
					JOINT RightShoulder
					{
						OFFSET -2.625389 11.175210 -0.000000
						CHANNELS 3 Zrotation Yrotation Xrotation
						JOINT RightArm
						{
							OFFSET 0.000000 10.434715 0.000000
							CHANNELS 3 Zrotation Yrotation Xrotation
							JOINT RightForeArm
							{
								OFFSET 0.000000 29.628420 0.000000
								CHANNELS 3 Zrotation Yrotation Xrotation
								JOINT RightHand
								{
									OFFSET 0.000000 22.857611 -0.000000
									CHANNELS 3 Zrotation Yrotation Xrotation
									JOINT RightHandThumb1
									{
										OFFSET -2.867323 3.959563 2.944291
										CHANNELS 3 Zrotation Yrotation Xrotation
										JOINT RightHandThumb2
										{
											OFFSET 0.000000 3.350399 -0.000000
											CHANNELS 3 Zrotation Yrotation Xrotation
											JOINT RightHandThumb3
											{
												OFFSET 0.000000 3.756509 -0.000000
												CHANNELS 3 Zrotation Yrotation Xrotation
												JOINT RightHandThumb4
												{
													OFFSET -0.000000 3.147345 -0.000000
													CHANNELS 3 Zrotation Yrotation Xrotation
													End Site
													{
														OFFSET 0.000000 0.000000 0.000000
													}
												}
											}
										}
									}
									JOINT RightHandIndex1
									{
										OFFSET -0.086752 10.030893 2.345280
										CHANNELS 3 Zrotation Yrotation Xrotation
										JOINT RightHandIndex2
										{
											OFFSET -0.000000 4.061090 -0.000000
											CHANNELS 3 Zrotation Yrotation Xrotation
											JOINT RightHandIndex3
											{
												OFFSET -0.000000 3.248873 0.000000
												CHANNELS 3 Zrotation Yrotation Xrotation
												JOINT RightHandIndex4
												{
													OFFSET -0.000000 2.639709 0.000000
													CHANNELS 3 Zrotation Yrotation Xrotation
													End Site
													{
														OFFSET 0.000000 0.000000 0.000000
													}
												}
											}
										}
									}
									JOINT RightHandMiddle1
									{
										OFFSET 0.104102 9.502952 0.006768
										CHANNELS 3 Zrotation Yrotation Xrotation
										JOINT RightHandMiddle2
										{
											OFFSET 0.000000 4.568727 -0.000000
											CHANNELS 3 Zrotation Yrotation Xrotation
											JOINT RightHandMiddle3
											{
												OFFSET 0.000000 3.654981 -0.000000
												CHANNELS 3 Zrotation Yrotation Xrotation
												JOINT RightHandMiddle4
												{
													OFFSET 0.000000 2.741236 0.000000
													CHANNELS 3 Zrotation Yrotation Xrotation
													End Site
													{
														OFFSET 0.000000 0.000000 0.000000
													}
												}
											}
										}
									}
									JOINT RightHandRing1
									{
										OFFSET 0.086752 8.921708 -2.267442
										CHANNELS 3 Zrotation Yrotation Xrotation
										JOINT RightHandRing2
										{
											OFFSET -0.000000 4.061090 -0.000000
											CHANNELS 3 Zrotation Yrotation Xrotation
											JOINT RightHandRing3
											{
												OFFSET -0.000000 3.654981 0.000000
												CHANNELS 3 Zrotation Yrotation Xrotation
												JOINT RightHandRing4
												{
													OFFSET -0.000000 2.741236 0.000000
													CHANNELS 3 Zrotation Yrotation Xrotation
													End Site
													{
														OFFSET 0.000000 0.000000 0.000000
													}
												}
											}
										}
									}
									JOINT RightHandPinky1
									{
										OFFSET -0.173504 7.976997 -4.467199
										CHANNELS 3 Zrotation Yrotation Xrotation
										JOINT RightHandPinky2
										{
											OFFSET -0.000000 3.350399 -0.000000
											CHANNELS 3 Zrotation Yrotation Xrotation
											JOINT RightHandPinky3
											{
												OFFSET -0.000000 2.842763 0.000000
												CHANNELS 3 Zrotation Yrotation Xrotation
												JOINT RightHandPinky4
												{
													OFFSET 0.000000 2.639709 -0.000000
													CHANNELS 3 Zrotation Yrotation Xrotation
													End Site
													{
														OFFSET 0.000000 0.000000 0.000000
													}
												}
											}
										}
									}
									JOINT RightForeArmEnd
									{
										OFFSET 0.000000 0.000000 0.000000
										CHANNELS 3 Zrotation Yrotation Xrotation
										End Site
										{
											OFFSET 0.000000 0.000000 0.000000
										}
									}
								}
								JOINT RightArmEnd
								{
									OFFSET 0.000000 0.000000 0.000000
									CHANNELS 3 Zrotation Yrotation Xrotation
									End Site
									{
										OFFSET 0.000000 0.000000 0.000000
									}
								}
							}
						}
					}
					JOINT LeftShoulder
					{
						OFFSET 2.625389 11.175210 -0.000000
						CHANNELS 3 Zrotation Yrotation Xrotation
						JOINT LeftArm
						{
							OFFSET 0.000000 10.813635 0.000000
							CHANNELS 3 Zrotation Yrotation Xrotation
							JOINT LeftForeArm
							{
								OFFSET -0.000000 28.724781 -0.000000
								CHANNELS 3 Zrotation Yrotation Xrotation
								JOINT LeftHand
								{
									OFFSET 0.644384 25.716167 -0.328871
									CHANNELS 3 Zrotation Yrotation Xrotation
									JOINT LeftHandThumb1
									{
										OFFSET 2.867323 3.959563 2.944291
										CHANNELS 3 Zrotation Yrotation Xrotation
										JOINT LeftHandThumb2
										{
											OFFSET 0.000000 3.350399 0.000000
											CHANNELS 3 Zrotation Yrotation Xrotation
											JOINT LeftHandThumb3
											{
												OFFSET 0.000000 3.756509 0.000000
												CHANNELS 3 Zrotation Yrotation Xrotation
												JOINT LeftHandThumb4
												{
													OFFSET -0.000000 3.100000 0.000000
													CHANNELS 3 Zrotation Yrotation Xrotation
													End Site
													{
														OFFSET 0.000000 0.000000 0.000000
													}
												}
											}
										}
									}
									JOINT LeftHandIndex1
									{
										OFFSET 0.086752 10.030893 2.345280
										CHANNELS 3 Zrotation Yrotation Xrotation
										JOINT LeftHandIndex2
										{
											OFFSET -0.000000 4.061090 -0.000000
											CHANNELS 3 Zrotation Yrotation Xrotation
											JOINT LeftHandIndex3
											{
												OFFSET -0.000000 3.248873 -0.000000
												CHANNELS 3 Zrotation Yrotation Xrotation
												JOINT LeftHandIndex4
												{
													OFFSET -0.000000 2.639709 -0.000000
													CHANNELS 3 Zrotation Yrotation Xrotation
													End Site
													{
														OFFSET 0.000000 0.000000 0.000000
													}
												}
											}
										}
									}
									JOINT LeftHandMiddle1
									{
										OFFSET -0.104102 9.502952 0.006768
										CHANNELS 3 Zrotation Yrotation Xrotation
										JOINT LeftHandMiddle2
										{
											OFFSET 0.000000 4.568727 -0.000000
											CHANNELS 3 Zrotation Yrotation Xrotation
											JOINT LeftHandMiddle3
											{
												OFFSET 0.000000 3.654981 0.000000
												CHANNELS 3 Zrotation Yrotation Xrotation
												JOINT LeftHandMiddle4
												{
													OFFSET 0.000000 2.741236 0.000000
													CHANNELS 3 Zrotation Yrotation Xrotation
													End Site
													{
														OFFSET 0.000000 0.000000 0.000000
													}
												}
											}
										}
									}
									JOINT LeftHandRing1
									{
										OFFSET -0.086752 8.921708 -2.267442
										CHANNELS 3 Zrotation Yrotation Xrotation
										JOINT LeftHandRing2
										{
											OFFSET -0.000000 4.061090 -0.000000
											CHANNELS 3 Zrotation Yrotation Xrotation
											JOINT LeftHandRing3
											{
												OFFSET 0.000000 3.654981 0.000000
												CHANNELS 3 Zrotation Yrotation Xrotation
												JOINT LeftHandRing4
												{
													OFFSET -0.000000 2.741236 -0.000000
													CHANNELS 3 Zrotation Yrotation Xrotation
													End Site
													{
														OFFSET 0.000000 0.000000 0.000000
													}
												}
											}
										}
									}
									JOINT LeftHandPinky1
									{
										OFFSET 0.173504 7.976997 -4.467199
										CHANNELS 3 Zrotation Yrotation Xrotation
										JOINT LeftHandPinky2
										{
											OFFSET 0.000000 3.350399 -0.000000
											CHANNELS 3 Zrotation Yrotation Xrotation
											JOINT LeftHandPinky3
											{
												OFFSET 0.000000 2.842763 0.000000
												CHANNELS 3 Zrotation Yrotation Xrotation
												JOINT LeftHandPinky4
												{
													OFFSET -0.000000 2.639709 -0.000000
													CHANNELS 3 Zrotation Yrotation Xrotation
													End Site
													{
														OFFSET 0.000000 0.000000 0.000000
													}
												}
											}
										}
									}
									JOINT LeftForeArmEnd
									{
										OFFSET 0.000000 0.000000 0.000000
										CHANNELS 3 Zrotation Yrotation Xrotation
										End Site
										{
											OFFSET 0.000000 0.000000 0.000000
										}
									}
								}
								JOINT LeftArmEnd
								{
									OFFSET 0.000000 0.000000 0.000000
									CHANNELS 3 Zrotation Yrotation Xrotation
									End Site
									{
										OFFSET 0.000000 0.000000 0.000000
									}
								}
							}
						}
					}
				}
			}
		}
	}
	JOINT RightUpLeg
	{
		OFFSET -11.289943 0.000000 -0.000000
		CHANNELS 3 Zrotation Yrotation Xrotation
		JOINT RightLeg
		{
			OFFSET 0.000000 -38.200325 -0.000000
			CHANNELS 3 Zrotation Yrotation Xrotation
			JOINT RightFoot
			{
				OFFSET -0.000000 -39.900856 -0.000000
				CHANNELS 3 Zrotation Yrotation Xrotation
				JOINT RightToeBase
				{
					OFFSET -0.000000 0.000000 15.261641
					CHANNELS 3 Zrotation Yrotation Xrotation
					JOINT RightToeBaseEnd
					{
						OFFSET 0.000000 0.000000 7.370709
						CHANNELS 3 Zrotation Yrotation Xrotation
						End Site
						{
							OFFSET 0.000000 0.000000 0.000000
						}
					}
				}
				JOINT RightLegEnd
				{
					OFFSET 0.000000 0.000000 0.000000
					CHANNELS 3 Zrotation Yrotation Xrotation
					End Site
					{
						OFFSET 0.000000 0.000000 0.000000
					}
				}
			}
			JOINT RightUpLegEnd
			{
				OFFSET 0.000000 0.000000 0.000000
				CHANNELS 3 Zrotation Yrotation Xrotation
				End Site
				{
					OFFSET 0.000000 0.000000 0.000000
				}
			}
		}
	}
	JOINT LeftUpLeg
	{
		OFFSET 11.315661 -0.000000 -0.000000
		CHANNELS 3 Zrotation Yrotation Xrotation
		JOINT LeftLeg
		{
			OFFSET 0.000000 -38.200325 0.000000
			CHANNELS 3 Zrotation Yrotation Xrotation
			JOINT LeftFoot
			{
				OFFSET 0.000000 -39.900856 0.000000
				CHANNELS 3 Zrotation Yrotation Xrotation
				JOINT LeftToeBase
				{
					OFFSET 0.000000 -0.000000 15.261641
					CHANNELS 3 Zrotation Yrotation Xrotation
					JOINT LeftToeBaseEnd
					{
						OFFSET -0.000000 0.000000 7.539996
						CHANNELS 3 Zrotation Yrotation Xrotation
						End Site
						{
							OFFSET 0.000000 0.000000 0.000000
						}
					}
				}
				JOINT LeftLegEnd
				{
					OFFSET 0.000000 0.000000 0.000000
					CHANNELS 3 Zrotation Yrotation Xrotation
					End Site
					{
						OFFSET 0.000000 0.000000 0.000000
					}
				}
			}
			JOINT LeftUpLegEnd
			{
				OFFSET 0.000000 0.000000 0.000000
				CHANNELS 3 Zrotation Yrotation Xrotation
				End Site
				{
					OFFSET 0.000000 0.000000 0.000000
				}
			}
		}
	}
}
MOTION
Frames: 4
Frame Time: 0.016667
3.587355 86.777222 10.244690 -0.404761 2.663306 -13.986351 1.840710 0.058415 8.829541 0.366025 0.087648 0.647586 -2.020977 0.403429 7.114102 -1.416716 -0.106416 3.780990 0.237370 -1.351263 4.296821 -0.240374 -1.320627 -3.571680 0.051012 -1.079897 -20.758356 0.000000 0.000000 0.000000 89.049431 0.636392 11.117121 59.418442 -6.522674 13.357107 -1.011551 15.980046 88.922417 21.497229 48.078541 13.053141 8.465335 -1.583983 40.788433 -0.000002 0.000016 -20.576750 0.000007 0.000053 -14.105935 0.000002 -0.000003 -0.000001 1.640746 0.152102 1.817920 2.585738 -0.076419 0.485352 2.482648 -0.058751 0.405639 -0.000018 0.000033 -0.000004 2.045065 0.030446 -1.929691 2.672532 -0.041259 0.171188 2.821684 -0.015010 0.146323 -0.000009 0.000129 -0.000001 6.132897 -0.040426 -7.027005 4.208434 0.050611 -0.207888 4.338698 0.026417 -0.155377 0.000023 0.001752 -0.000005 10.259502 -0.022640 -13.495631 6.076481 0.136028 -0.371929 6.220866 0.028393 -0.379764 -0.000780 0.000014 -0.000019 0.000000 0.000000 0.000000 0.000000 0.000000 0.000000 -86.422928 -0.952852 5.639689 -70.833527 1.727333 -2.893467 0.283531 -15.564561 100.881950 -51.549080 -58.764580 37.813522 -7.864219 1.526163 40.934723 -0.000008 0.000003 -19.260628 -0.000095 -0.000028 -13.319170 0.000501 0.000012 0.000456 -2.100497 0.100267 2.719250 -2.511218 -0.068134 -0.163919 -2.712853 -0.047599 -0.112040 0.000010 0.000322 -0.000011 -4.214087 0.043117 -2.206788 -3.304961 -0.036348 -0.065378 -3.092420 -0.011101 -0.056234 -0.001582 0.000026 0.000204 -10.978663 -0.032090 -9.178564 -6.250664 0.066541 0.051635 -5.983859 0.016856 0.034498 -0.001037 0.000016 0.000001 -15.762445 -0.187296 -16.333073 -9.743295 0.110381 0.078129 -9.670339 0.042915 0.078133 -0.000312 0.000013 -0.000039 0.000000 0.000000 0.000000 0.000000 0.000000 0.000000 -5.720115 -15.503086 20.503262 -0.128412 -0.799140 5.319125 1.138919 -9.768517 15.268143 -1.184041 1.129684 -16.953094 0.000000 0.000000 0.000000 0.000000 0.000000 0.000000 0.000000 0.000000 0.000000 4.869793 -1.988196 14.409089 0.192882 1.055727 11.431658 -1.105114 0.504784 13.894653 0.696381 -1.060708 -19.552370 0.000000 0.000000 0.000000 0.000000 0.000000 0.000000 0.000000 0.000000 0.000000 
3.595791 86.780968 10.264560 -0.375988 2.735431 -14.018549 1.793095 0.061118 8.835400 0.385254 0.074651 0.700557 -2.041643 0.419169 7.076777 -1.424945 -0.117592 3.804115 0.147415 -1.311430 4.340096 -0.262278 -1.340333 -3.535705 0.037902 -1.079323 -20.729845 0.000000 0.000000 0.000000 89.066696 0.624917 11.113953 59.272255 -7.047273 13.500773 -1.051649 15.819122 89.546204 20.541361 46.774376 12.194645 8.373465 -1.572899 40.832111 -0.000002 0.000016 -20.352875 0.000006 0.000053 -13.952268 0.000002 -0.000003 -0.000001 1.159458 0.152334 1.781344 2.412734 -0.071948 0.474976 2.306858 -0.054232 0.398441 -0.000018 0.000033 -0.000004 1.567341 0.031038 -2.006854 2.497583 -0.039735 0.168847 2.641916 -0.014128 0.144405 -0.000009 0.000130 -0.000001 5.699323 -0.040292 -7.195798 4.040209 0.047985 -0.207096 4.170905 0.024798 -0.155219 0.000024 0.001764 -0.000005 9.892373 -0.019111 -13.756214 5.913208 0.128296 -0.377736 6.060412 0.022300 -0.386179 -0.000762 0.000014 -0.000019 0.000000 0.000000 0.000000 0.000000 0.000000 0.000000 -86.419281 -0.961012 5.607727 -70.892792 1.647229 -2.974634 0.293258 -15.585384 100.459129 -50.151123 -58.702385 36.523624 -7.659283 1.501080 41.030251 -0.000008 0.000003 -18.755812 -0.000095 -0.000028 -12.978161 0.000469 0.000013 0.000358 -1.026595 0.100262 3.046655 -2.013128 -0.067134 -0.177705 -2.214983 -0.046032 -0.126644 0.000009 0.000264 -0.000011 -3.242175 0.043644 -2.002805 -2.804822 -0.036170 -0.071647 -2.592818 -0.010767 -0.061967 -0.001611 0.000027 0.000205 -10.118093 -0.032364 -9.148122 -5.734285 0.065318 0.059672 -5.466694 0.016097 0.041885 -0.001001 0.000016 0.000001 -14.994166 -0.184402 -16.486797 -9.279532 0.107022 0.101573 -9.211758 0.040102 0.101067 -0.000275 0.000013 -0.000039 0.000000 0.000000 0.000000 0.000000 0.000000 0.000000 -5.776343 -15.480803 20.551395 -0.129066 -0.804975 5.321112 1.169932 -9.745566 15.259272 -1.191142 1.136102 -16.961483 0.000000 0.000000 0.000000 0.000000 0.000000 0.000000 0.000000 0.000000 0.000000 4.811822 -1.946157 14.413018 0.190523 1.050941 11.472176 -1.077372 0.487998 13.899447 0.687561 -1.056282 -19.550333 0.000000 0.000000 0.000000 0.000000 0.000000 0.000000 0.000000 0.000000 0.000000 
3.606105 86.784836 10.285170 -0.347409 2.795532 -14.049311 1.748408 0.062520 8.838902 0.405881 0.059656 0.761355 -2.066616 0.431665 7.031247 -1.440345 -0.129993 3.825664 0.064434 -1.281065 4.373857 -0.287596 -1.372259 -3.509234 0.028178 -1.077113 -20.705381 0.000000 0.000000 0.000000 89.069405 0.617937 11.117816 59.106186 -7.529552 13.686009 -1.098391 15.646185 90.230019 19.578272 45.318554 11.397288 8.279205 -1.560977 40.877621 -0.000002 0.000015 -20.121822 0.000006 0.000053 -13.794290 0.000002 -0.000004 -0.000000 0.650529 0.152823 1.780113 2.241727 -0.067870 0.466358 2.133357 -0.049977 0.393214 -0.000018 0.000033 -0.000003 1.056323 0.031638 -2.062557 2.325066 -0.038384 0.167021 2.464174 -0.013291 0.143054 -0.000009 0.000131 -0.000001 5.228562 -0.040262 -7.362223 3.870108 0.045611 -0.207187 4.000817 0.023311 -0.155711 0.000024 0.001770 -0.000006 9.494217 -0.015686 -14.031920 5.747490 0.121570 -0.385952 5.896251 0.016890 -0.394683 -0.000744 0.000014 -0.000020 0.000000 0.000000 0.000000 0.000000 0.000000 0.000000 -86.418343 -0.968549 5.588217 -70.982559 1.568742 -3.065785 0.300717 -15.602419 100.060913 -48.753616 -58.629337 35.273895 -7.455789 1.475806 41.125500 -0.000007 0.000003 -18.254829 -0.000095 -0.000027 -12.637568 0.000445 0.000014 0.000274 0.051015 0.100400 3.355739 -1.533057 -0.066365 -0.191638 -1.736082 -0.044692 -0.141391 0.000009 0.000215 -0.000012 -2.265491 0.044242 -1.813466 -2.323460 -0.036081 -0.077982 -2.112997 -0.010483 -0.067871 -0.001648 0.000027 0.000206 -9.253301 -0.032708 -9.130310 -5.233524 0.064277 0.067685 -4.965646 0.015348 0.049231 -0.000962 0.000016 0.000001 -14.221687 -0.181985 -16.652168 -8.826518 0.104047 0.124463 -8.764788 0.037449 0.123509 -0.000240 0.000013 -0.000038 0.000000 0.000000 0.000000 0.000000 0.000000 0.000000 -5.832899 -15.455115 20.590319 -0.129781 -0.810212 5.332927 1.199019 -9.730000 15.255068 -1.197495 1.141647 -16.970631 0.000000 0.000000 0.000000 0.000000 0.000000 0.000000 0.000000 0.000000 0.000000 4.755578 -1.906619 14.411203 0.188222 1.046529 11.513910 -1.048710 0.473253 13.902950 0.679384 -1.051952 -19.544867 0.000000 0.000000 0.000000 0.000000 0.000000 0.000000 0.000000 0.000000 0.000000 
3.618331 86.789291 10.306479 -0.319969 2.841760 -14.078341 1.710059 0.063340 8.838652 0.429281 0.043304 0.826141 -2.095187 0.444495 6.978773 -1.463130 -0.141174 3.844513 -0.011745 -1.261941 4.398324 -0.315238 -1.415874 -3.492800 0.021795 -1.073897 -20.688532 0.000000 0.000000 0.000000 89.053596 0.615886 11.134052 58.913479 -7.959926 13.913193 -1.150449 15.456900 90.935371 18.657835 43.737957 10.688435 8.189200 -1.549050 40.921791 -0.000002 0.000015 -19.900347 0.000006 0.000053 -13.643169 0.000002 -0.000004 -0.000000 0.141893 0.153254 1.813248 2.085732 -0.064090 0.458384 1.975854 -0.045966 0.388759 -0.000018 0.000033 -0.000003 0.541776 0.032125 -2.094107 2.166267 -0.037180 0.165237 2.299913 -0.012448 0.141913 -0.000009 0.000132 -0.000001 4.741933 -0.040231 -7.520938 3.706603 0.043479 -0.207683 3.837200 0.021972 -0.156424 0.000025 0.001761 -0.000006 9.073726 -0.012288 -14.313178 5.584991 0.116069 -0.395426 5.734415 0.012366 -0.404156 -0.000728 0.000014 -0.000020 0.000000 0.000000 0.000000 0.000000 0.000000 0.000000 -86.422142 -0.974229 5.585860 -71.092018 1.477833 -3.143097 0.308163 -15.609962 99.675522 -47.445942 -58.558960 34.144993 -7.256523 1.450230 41.219543 -0.000007 0.000002 -17.764051 -0.000096 -0.000027 -12.301976 0.000434 0.000014 0.000205 1.116403 0.100422 3.650094 -1.083028 -0.065845 -0.204850 -1.288613 -0.043610 -0.155268 0.000009 0.000175 -0.000012 -1.297905 0.044779 -1.633211 -1.872298 -0.036075 -0.083986 -1.664009 -0.010255 -0.073594 -0.001689 0.000028 0.000206 -8.397114 -0.033087 -9.117068 -4.758737 0.063426 0.075238 -4.490704 0.014623 0.056111 -0.000921 0.000016 0.000001 -13.459880 -0.180098 -16.821426 -8.393123 0.101403 0.145510 -8.338016 0.035038 0.144295 -0.000209 0.000014 -0.000038 0.000000 0.000000 0.000000 0.000000 0.000000 0.000000 -5.885742 -15.426908 20.619762 -0.130476 -0.814851 5.354188 1.226155 -9.724333 15.254262 -1.202953 1.146172 -16.978006 0.000000 0.000000 0.000000 0.000000 0.000000 0.000000 0.000000 0.000000 0.000000 4.703598 -1.870947 14.408469 0.185973 1.042533 11.548702 -1.019072 0.466426 13.908751 0.672829 -1.047848 -19.535309 0.000000 0.000000 0.000000 0.000000 0.000000 0.000000 0.000000 0.000000 0.000000 
